<svg width="48" height="48" viewBox="0 0 48 48" fill="none" xmlns="http://www.w3.org/2000/svg" xmlns:xlink="http://www.w3.org/1999/xlink">
<path d="M6,39C6,40.105 6.895,41 8,41C9.105,41 10,40.105 10,39L6,39ZM13,34L13,32L13,34ZM40,36C41.105,36 42,35.105 42,34C42,32.895 41.105,32 40,32L40,36ZM10,39C10,38.204 10.316,37.441 10.879,36.879L8.05,34.05C6.737,35.363 6,37.143 6,39L10,39ZM10.879,36.879C11.441,36.316 12.204,36 13,36L13,32C11.143,32 9.363,32.737 8.05,34.05L10.879,36.879ZM13,36L40,36L40,32L13,32L13,36Z" fill="#000000"/>
<path d="M13,4L13,2L13,4ZM40,4L42,4C42,2.895 41.105,2 40,2L40,4ZM40,44L40,46C41.105,46 42,45.105 42,44L40,44ZM8,39L6,39L8,39ZM8,9L6,9L8,9ZM13,6L40,6L40,2L13,2L13,6ZM38,4L38,44L42,44L42,4L38,4ZM40,42L13,42L13,46L40,46L40,42ZM13,42C12.204,42 11.441,41.684 10.879,41.121L8.05,43.95C9.363,45.263 11.143,46 13,46L13,42ZM10.879,41.121C10.316,40.559 10,39.796 10,39L6,39C6,40.857 6.737,42.637 8.05,43.95L10.879,41.121ZM10,39L10,9L6,9L6,39L10,39ZM10,9C10,8.204 10.316,7.441 10.879,6.879L8.05,4.05C6.737,5.363 6,7.143 6,9L10,9ZM10.879,6.879C11.441,6.316 12.204,6 13,6L13,2C11.143,2 9.363,2.737 8.05,4.05L10.879,6.879Z" fill="#000000"/>
</svg>
