<svg width="48" height="48" viewBox="0 0 48 48" fill="none" xmlns="http://www.w3.org/2000/svg" xmlns:xlink="http://www.w3.org/1999/xlink">
<path d="M6,39C6,40.105 6.895,41 8,41C9.105,41 10,40.105 10,39L6,39ZM13,34L13,32L13,34ZM40,36C41.105,36 42,35.105 42,34C42,32.895 41.105,32 40,32L40,36ZM10,39C10,38.204 10.316,37.441 10.879,36.879L8.05,34.05C6.737,35.363 6,37.143 6,39L10,39ZM10.879,36.879C11.441,36.316 12.204,36 13,36L13,32C11.143,32 9.363,32.737 8.05,34.05L10.879,36.879ZM13,36L40,36L40,32L13,32L13,36Z" fill="#000000"/>
<path d="M12.411,3.853L12.411,1.853L12.411,3.853ZM39.411,3.853L41.411,3.853C41.411,2.748 40.516,1.853 39.411,1.853L39.411,3.853ZM39.411,43.853L39.411,45.853C40.516,45.853 41.411,44.957 41.411,43.853L39.411,43.853ZM7.411,38.853L5.411,38.853L7.411,38.853ZM7.411,8.853L5.411,8.853L7.411,8.853ZM12.411,5.853L39.411,5.853L39.411,1.853L12.411,1.853L12.411,5.853ZM37.411,3.853L37.411,43.853L41.411,43.853L41.411,3.853L37.411,3.853ZM39.411,41.853L12.411,41.853L12.411,45.853L39.411,45.853L39.411,41.853ZM12.411,41.853C11.615,41.853 10.852,41.537 10.29,40.974L7.461,43.803C8.774,45.115 10.555,45.853 12.411,45.853L12.411,41.853ZM10.29,40.974C9.727,40.412 9.411,39.648 9.411,38.853L5.411,38.853C5.411,40.709 6.149,42.49 7.461,43.803L10.29,40.974ZM9.411,38.853L9.411,8.853L5.411,8.853L5.411,38.853L9.411,38.853ZM9.411,8.853C9.411,8.057 9.727,7.294 10.29,6.732L7.461,3.903C6.149,5.216 5.411,6.996 5.411,8.853L9.411,8.853ZM10.29,6.732C10.852,6.169 11.615,5.853 12.411,5.853L12.411,1.853C10.555,1.853 8.774,2.59 7.461,3.903L10.29,6.732Z" fill="#000000"/>
</svg>
