<svg width="116" height="114" viewBox="0 0 116 114" fill="none" xmlns="http://www.w3.org/2000/svg" xmlns:xlink="http://www.w3.org/1999/xlink">
<path d="M116,57C116,88.48 90.033,114 58,114C25.967,114 0,88.48 0,57C0,25.52 25.967,0 58,0C90.033,0 116,25.52 116,57Z" fill="#D9D9D9"/>
<path d="M38,68L36,68L38,68ZM42,42L42,40L42,42ZM50,42L50,44C50.669,44 51.293,43.666 51.664,43.109L50,42ZM54,36L54,34C53.331,34 52.707,34.334 52.336,34.891L54,36ZM66,36L67.664,34.891C67.293,34.334 66.669,34 66,34L66,36ZM70,42L68.336,43.109C68.707,43.666 69.331,44 70,44L70,42ZM78,42L78,40L78,42ZM80,68C80,68.53 79.789,69.039 79.414,69.414L82.243,72.243C83.368,71.117 84,69.591 84,68L80,68ZM79.414,69.414C79.039,69.789 78.53,70 78,70L78,74C79.591,74 81.117,73.368 82.243,72.243L79.414,69.414ZM78,70L42,70L42,74L78,74L78,70ZM42,70C41.47,70 40.961,69.789 40.586,69.414L37.757,72.243C38.883,73.368 40.409,74 42,74L42,70ZM40.586,69.414C40.211,69.039 40,68.53 40,68L36,68C36,69.591 36.632,71.117 37.757,72.243L40.586,69.414ZM40,68L40,46L36,46L36,68L40,68ZM40,46C40,45.47 40.211,44.961 40.586,44.586L37.757,41.757C36.632,42.883 36,44.409 36,46L40,46ZM40.586,44.586C40.961,44.211 41.47,44 42,44L42,40C40.409,40 38.883,40.632 37.757,41.757L40.586,44.586ZM42,44L50,44L50,40L42,40L42,44ZM51.664,43.109L55.664,37.109L52.336,34.891L48.336,40.891L51.664,43.109ZM54,38L66,38L66,34L54,34L54,38ZM64.336,37.109L68.336,43.109L71.664,40.891L67.664,34.891L64.336,37.109ZM70,44L78,44L78,40L70,40L70,44ZM78,44C78.53,44 79.039,44.211 79.414,44.586L82.243,41.757C81.117,40.632 79.591,40 78,40L78,44ZM79.414,44.586C79.789,44.961 80,45.47 80,46L84,46C84,44.409 83.368,42.883 82.243,41.757L79.414,44.586ZM80,46L80,68L84,68L84,46L80,46Z" fill="#000000"/>
<path d="M66,56C66,59.314 63.314,62 60,62L60,66C65.523,66 70,61.523 70,56L66,56ZM60,62C56.686,62 54,59.314 54,56L50,56C50,61.523 54.477,66 60,66L60,62ZM54,56C54,52.686 56.686,50 60,50L60,46C54.477,46 50,50.477 50,56L54,56ZM60,50C63.314,50 66,52.686 66,56L70,56C70,50.477 65.523,46 60,46L60,50Z" fill="#000000"/>
</svg>
