<svg width="48" height="48" viewBox="0 0 48 48" fill="none" xmlns="http://www.w3.org/2000/svg" xmlns:xlink="http://www.w3.org/1999/xlink">
<path d="M16.586,29.414C17.367,30.195 18.633,30.195 19.414,29.414C20.195,28.633 20.195,27.367 19.414,26.586L16.586,29.414ZM8,18L6.586,16.586C5.805,17.367 5.805,18.633 6.586,19.414L8,18ZM19.414,9.414C20.195,8.633 20.195,7.367 19.414,6.586C18.633,5.805 17.367,5.805 16.586,6.586L19.414,9.414ZM19.414,26.586L9.414,16.586L6.586,19.414L16.586,29.414L19.414,26.586ZM9.414,19.414L19.414,9.414L16.586,6.586L6.586,16.586L9.414,19.414Z" fill="#000000"/>
<path d="M38,40C38,41.105 38.895,42 40,42C41.105,42 42,41.105 42,40L38,40ZM32,18L32,16L32,18ZM8,16C6.895,16 6,16.895 6,18C6,19.105 6.895,20 8,20L8,16ZM42,40L42,26L38,26L38,40L42,40ZM42,26C42,23.348 40.946,20.804 39.071,18.929L36.243,21.757C37.368,22.883 38,24.409 38,26L42,26ZM39.071,18.929C37.196,17.054 34.652,16 32,16L32,20C33.591,20 35.117,20.632 36.243,21.757L39.071,18.929ZM32,16L8,16L8,20L32,20L32,16Z" fill="#000000"/>
</svg>
