<svg width="96" height="96" viewBox="0 0 96 96" fill="none" xmlns="http://www.w3.org/2000/svg" xmlns:xlink="http://www.w3.org/1999/xlink">
<path d="M96,48C96,21.488 74.512,0 48,0C21.488,0 0,21.488 0,48C0,71.963 17.55,91.819 40.5,95.419L40.5,61.875L28.312,61.875L28.312,48L40.5,48L40.5,37.425C40.5,25.397 47.663,18.75 58.631,18.75C63.881,18.75 69.375,19.688 69.375,19.688L69.375,31.5L63.319,31.5C57.356,31.5 55.5,35.203 55.5,39L55.5,48L68.812,48L66.684,61.875L55.5,61.875L55.5,95.419C78.45,91.819 96,71.963 96,48Z" fill="#1877F2"/>
<path d="M66.684,61.875L68.812,48L55.5,48L55.5,39C55.5,35.203 57.356,31.5 63.319,31.5L69.375,31.5L69.375,19.688C69.375,19.688 63.881,18.75 58.631,18.75C47.663,18.75 40.5,25.397 40.5,37.425L40.5,48L28.312,48L28.312,61.875L40.5,61.875L40.5,95.419C42.947,95.803 45.45,96 48,96C50.55,96 53.053,95.803 55.5,95.419L55.5,61.875L66.684,61.875Z" fill="#FFFFFF"/>
</svg>
