<svg width="48" height="48" viewBox="0 0 48 48" fill="none" xmlns="http://www.w3.org/2000/svg" xmlns:xlink="http://www.w3.org/1999/xlink">
<path d="M8,10L40,10L40,6L8,6L8,10ZM40,10C41.095,10 42,10.905 42,12L46,12C46,8.695 43.305,6 40,6L40,10ZM42,12L42,36L46,36L46,12L42,12ZM42,36C42,37.095 41.095,38 40,38L40,42C43.305,42 46,39.305 46,36L42,36ZM40,38L8,38L8,42L40,42L40,38ZM8,38C6.905,38 6,37.095 6,36L2,36C2,39.305 4.695,42 8,42L8,38ZM6,36L6,12L2,12L2,36L6,36ZM6,12C6,10.905 6.905,10 8,10L8,6C4.695,6 2,8.695 2,12L6,12Z" fill="#000000"/>
<path d="M45.147,13.638C46.052,13.005 46.272,11.758 45.638,10.853C45.005,9.948 43.758,9.728 42.853,10.362L45.147,13.638ZM24,26L22.853,27.638C23.542,28.121 24.458,28.121 25.147,27.638L24,26ZM5.147,10.362C4.242,9.728 2.995,9.948 2.362,10.853C1.728,11.758 1.948,13.005 2.853,13.638L5.147,10.362ZM42.853,10.362L22.853,24.362L25.147,27.638L45.147,13.638L42.853,10.362ZM25.147,24.362L5.147,10.362L2.853,13.638L22.853,27.638L25.147,24.362Z" fill="#000000"/>
</svg>
