<svg width="42" height="42" viewBox="0 0 42 42" fill="none" xmlns="http://www.w3.org/2000/svg" xmlns:xlink="http://www.w3.org/1999/xlink">
<path d="M20,7.243C23.906,7.243 26.541,8.93 28.043,10.34L33.913,4.608C30.308,1.257 25.616,-0.8 20,-0.8C11.865,-0.8 4.839,3.868 1.419,10.663L8.144,15.886C9.831,10.871 14.5,7.243 20,7.243L20,7.243Z" fill="#EA4335"/>
<path d="M39.968,20.462C39.968,18.752 39.829,17.504 39.529,16.21L20,16.21L20,23.929L31.463,23.929C31.232,25.847 29.984,28.736 27.211,30.677L33.774,35.762C37.703,32.133 39.968,26.795 39.968,20.462L39.968,20.462Z" fill="#4285F4"/>
<path d="M8.167,24.114C7.728,22.82 7.474,21.433 7.474,20C7.474,18.567 7.728,17.18 8.144,15.886L1.419,10.663C0.009,13.483 -0.8,16.649 -0.8,20C-0.8,23.351 0.009,26.517 1.419,29.337L8.167,24.114L8.167,24.114Z" fill="#FBBC05"/>
<path d="M20,40.8C25.616,40.8 30.331,38.951 33.774,35.762L27.211,30.677C25.454,31.902 23.097,32.757 20,32.757C14.5,32.757 9.831,29.129 8.167,24.114L1.442,29.337C4.862,36.132 11.865,40.8 20,40.8L20,40.8Z" fill="#34A853"/>
</svg>
