<svg width="24" height="40" viewBox="0 0 24 40" fill="none" xmlns="http://www.w3.org/2000/svg" xmlns:xlink="http://www.w3.org/1999/xlink">
<path d="M2,2L2,0C0.895,0 0,0.895 0,2L2,2ZM22,10L24,10L22,10ZM20,38C20,39.105 20.895,40 22,40C23.105,40 24,39.105 24,38L20,38ZM16,32L16,30L16,32ZM2,32L0,32C0,33.105 0.895,34 2,34L2,32ZM2,4L14,4L14,0L2,0L2,4ZM14,4C15.591,4 17.117,4.632 18.243,5.757L21.071,2.929C19.196,1.054 16.652,0 14,0L14,4ZM18.243,5.757C19.368,6.883 20,8.409 20,10L24,10C24,7.348 22.946,4.804 21.071,2.929L18.243,5.757ZM20,10L20,38L24,38L24,10L20,10ZM24,38C24,35.878 23.157,33.843 21.657,32.343L18.828,35.172C19.579,35.922 20,36.939 20,38L24,38ZM21.657,32.343C20.157,30.843 18.122,30 16,30L16,34C17.061,34 18.078,34.421 18.828,35.172L21.657,32.343ZM16,30L2,30L2,34L16,34L16,30ZM4,32L4,2L0,2L0,32L4,32Z" fill="#000000"/>
</svg>
