<svg width="40" height="40" viewBox="0 0 40 40" fill="none" xmlns="http://www.w3.org/2000/svg" xmlns:xlink="http://www.w3.org/1999/xlink">
<path d="M38,19L36,19L36,19.005L38,19ZM36.2,26.6L34.415,25.698L34.411,25.706L36.2,26.6ZM21,36L20.999,34L20.995,34L21,36ZM13.4,34.2L14.302,32.415C13.826,32.174 13.273,32.134 12.768,32.303L13.4,34.2ZM2,38L0.103,37.368C-0.137,38.086 0.05,38.879 0.586,39.414C1.121,39.95 1.914,40.137 2.632,39.897L2,38ZM5.8,26.6L7.697,27.233C7.866,26.727 7.826,26.174 7.585,25.698L5.8,26.6ZM4,19L6,19.005L6,19.001L4,19ZM13.4,3.8L14.294,5.589L14.302,5.585L13.4,3.8ZM21,2L20.995,4L21,4L21,2ZM22,2L22.11,0.003C22.073,0.001 22.037,0 22,0L22,2ZM38,18L40,18C40,17.963 39.999,17.927 39.997,17.89L38,18ZM36,19.005C36.006,21.33 35.463,23.623 34.415,25.698L37.985,27.502C39.317,24.864 40.008,21.95 40,18.995L36,19.005ZM34.411,25.706C33.166,28.197 31.252,30.293 28.883,31.758L30.987,35.16C33.987,33.304 36.412,30.65 37.989,27.494L34.411,25.706ZM28.883,31.758C26.514,33.223 23.784,33.999 20.999,34L21.001,38C24.529,37.999 27.986,37.015 30.987,35.16L28.883,31.758ZM20.995,34C18.67,34.006 16.377,33.463 14.302,32.415L12.498,35.985C15.136,37.317 18.05,38.008 21.005,38L20.995,34ZM12.768,32.303L1.368,36.103L2.632,39.897L14.032,36.097L12.768,32.303ZM3.897,38.633L7.697,27.233L3.903,25.968L0.103,37.368L3.897,38.633ZM7.585,25.698C6.537,23.623 5.994,21.33 6,19.005L2,18.995C1.992,21.95 2.683,24.864 4.015,27.502L7.585,25.698ZM6,19.001C6.001,16.216 6.778,13.486 8.242,11.117L4.84,9.013C2.985,12.014 2.001,15.471 2,18.999L6,19.001ZM8.242,11.117C9.707,8.748 11.803,6.834 14.294,5.589L12.506,2.011C9.35,3.588 6.696,6.013 4.84,9.013L8.242,11.117ZM14.302,5.585C16.377,4.537 18.67,3.994 20.995,4L21.005,0C18.05,-0.008 15.136,0.683 12.498,2.015L14.302,5.585ZM21,4L22,4L22,0L21,0L21,4ZM21.89,3.997C25.567,4.2 29.04,5.752 31.644,8.356L34.472,5.528C31.172,2.227 26.77,0.26 22.11,0.003L21.89,3.997ZM31.644,8.356C34.248,10.96 35.8,14.433 36.003,18.11L39.997,17.89C39.74,13.23 37.773,8.828 34.472,5.528L31.644,8.356ZM36,18L36,19L40,19L40,18L36,18Z" fill="#000000"/>
</svg>
