<svg width="38" height="26" viewBox="0 0 38 26" fill="none" xmlns="http://www.w3.org/2000/svg" xmlns:xlink="http://www.w3.org/1999/xlink">
<g opacity="0.5">
<path d="M36.944,11.339C36.89,11.217 35.58,8.31 32.667,5.397C28.785,1.515 23.882,-0.536 18.486,-0.536C13.09,-0.536 8.188,1.515 4.306,5.397C1.393,8.31 0.077,11.222 0.029,11.339C-0.042,11.497 -0.078,11.669 -0.078,11.842C-0.078,12.015 -0.042,12.186 0.029,12.345C0.083,12.467 1.393,15.372 4.306,18.285C8.188,22.165 13.09,24.217 18.486,24.217C23.882,24.217 28.785,22.165 32.667,18.285C35.58,15.372 36.89,12.467 36.944,12.345C37.014,12.186 37.051,12.015 37.051,11.842C37.051,11.669 37.014,11.497 36.944,11.339ZM18.486,18.028C17.262,18.028 16.066,17.666 15.048,16.986C14.031,16.306 13.238,15.339 12.769,14.208C12.301,13.078 12.178,11.833 12.417,10.633C12.656,9.433 13.245,8.33 14.111,7.465C14.976,6.599 16.079,6.01 17.279,5.771C18.48,5.532 19.724,5.655 20.855,6.123C21.985,6.592 22.952,7.385 23.632,8.402C24.312,9.42 24.675,10.616 24.675,11.84C24.675,13.482 24.023,15.055 22.862,16.216C21.702,17.376 20.128,18.028 18.486,18.028Z" fill="#000000"/>
</g>
</svg>
