<svg width="24" height="40" viewBox="0 0 24 40" fill="none" xmlns="http://www.w3.org/2000/svg" xmlns:xlink="http://www.w3.org/1999/xlink">
<path d="M22,2L24,2C24,0.895 23.105,0 22,0L22,2ZM10,2L10,0L10,2ZM2,10L0,10L2,10ZM0,38C0,39.105 0.895,40 2,40C3.105,40 4,39.105 4,38L0,38ZM8,32L8,30L8,32ZM22,32L22,34C23.105,34 24,33.105 24,32L22,32ZM22,0L10,0L10,4L22,4L22,0ZM10,0C7.348,0 4.804,1.054 2.929,2.929L5.757,5.757C6.883,4.632 8.409,4 10,4L10,0ZM2.929,2.929C1.054,4.804 0,7.348 0,10L4,10C4,8.409 4.632,6.883 5.757,5.757L2.929,2.929ZM0,10L0,38L4,38L4,10L0,10ZM4,38C4,36.939 4.421,35.922 5.172,35.172L2.343,32.343C0.843,33.843 0,35.878 0,38L4,38ZM5.172,35.172C5.922,34.421 6.939,34 8,34L8,30C5.878,30 3.843,30.843 2.343,32.343L5.172,35.172ZM8,34L22,34L22,30L8,30L8,34ZM24,32L24,2L20,2L20,32L24,32Z" fill="#000000"/>
</svg>
